<?xml version="1.0" encoding="UTF-8"?>
<svg id="Layer_1" xmlns="http://www.w3.org/2000/svg" version="1.1" viewBox="0 0 16 16">
  <defs>
    <style>
      .st0 {
        fill: #fff;
      }
    </style>
  </defs>
  <rect class="st0" width="16" height="16" rx="4" ry="4"/>
  <path d="M12,3c.55,0,1,.45,1,1v8c0,.55-.45,1-1,1H4c-.55,0-1-.45-1-1V4c0-.55.45-1,1-1h8M12,1H4c-1.66,0-3,1.34-3,3v8c0,1.66,1.34,3,3,3h8c1.66,0,3-1.34,3-3V4c0-1.66-1.34-3-3-3h0Z"/>
  <rect x="5" y="5" width="6" height="6" rx="1" ry="1"/>
</svg>